<svg xmlns="http://www.w3.org/2000/svg" width="94" height="94" fill="none"><path fill="#FDB79A" d="M56.836 10.295c-20.238-5.423-41.117 6.632-46.54 26.87-5.423 20.238 6.631 41.117 26.87 46.54 20.238 5.423 41.117-6.632 46.54-26.87 5.423-20.238-6.632-41.117-26.87-46.54zm-18.44 68.822c-17.707-4.744-28.258-23.013-23.512-40.723C19.629 20.684 37.9 10.14 55.607 14.883c17.705 4.744 28.256 23.012 23.51 40.723-4.745 17.71-23.016 28.255-40.722 23.511z"/><path fill="#FDB79A" d="M65.538 47.541l-5.374-6.85 8.083-3.242a2.379 2.379 0 001.324-3.088 2.375 2.375 0 00-3.089-1.32l-11.02 4.424a2.374 2.374 0 00-.988 3.67l7.332 9.34a2.373 2.373 0 103.732-2.934zM44.446 34.513l-7.332-9.34a2.383 2.383 0 00-3.335-.403 2.378 2.378 0 00-.402 3.335l5.379 6.85-8.084 3.244a2.378 2.378 0 00-1.319 3.089 2.373 2.373 0 003.089 1.32l11.02-4.424a2.373 2.373 0 00.984-3.67zM62.628 66.2l-7.947-7.046a2.385 2.385 0 00-2.05-.55l-9.246 1.89-7.056-6.258a2.384 2.384 0 00-2.051-.55l-10.406 2.13a2.38 2.38 0 00-1.853 2.803 2.382 2.382 0 002.804 1.853l9.241-1.896 7.057 6.258c.56.495 1.322.699 2.05.55l9.246-1.89 7.056 6.258a2.375 2.375 0 103.155-3.551z"/></svg>