<svg width="15" height="12" fill="none" xmlns="http://www.w3.org/2000/svg"><path fill-rule="evenodd" clip-rule="evenodd" d="M4.532 10.63a.68.68 0 01.139-.42.432.432 0 01.335-.173h9.481c.126 0 .247.063.336.174a.675.675 0 01.138.419.68.68 0 01-.138.419.432.432 0 01-.336.173H5.006a.432.432 0 01-.335-.173.675.675 0 01-.14-.42zM2.636 5.889a.68.68 0 01.138-.419.432.432 0 01.336-.174h9.481c.126 0 .246.063.335.174a.675.675 0 01.14.419.67.67 0 01-.14.419.432.432 0 01-.335.174H3.11a.432.432 0 01-.336-.174.675.675 0 01-.138-.419zM.739 1.149A.68.68 0 01.88.728a.432.432 0 01.334-.173h9.482c.125 0 .246.062.335.173a.675.675 0 01.139.42c0 .156-.05.307-.139.418a.432.432 0 01-.335.174H1.213a.432.432 0 01-.335-.174.675.675 0 01-.139-.419z" fill="#4D4D4D"/></svg>