<svg width="28" height="29" xmlns="http://www.w3.org/2000/svg"><path d="M0 1.2A1.2 1.2 0 011.2 0h.893c1.52 0 2.432 1.022 2.952 1.973.347.634.599 1.368.795 2.034C5.894 4.002 5.947 4 6 4h20a2 2 0 011.923 2.55l-2.925 10.254a4.4 4.4 0 01-4.23 3.194H11.25a4.4 4.4 0 01-4.244-3.235L5.79 12.327 3.773 5.53l-.002-.013c-.25-.907-.483-1.757-.832-2.39-.334-.616-.603-.727-.844-.727H1.2A1.2 1.2 0 010 1.2zm8.117 10.545l1.202 4.383a2.004 2.004 0 001.93 1.47h9.517a2 2 0 001.924-1.451L25.469 6.4H6.536l1.559 5.26.022.085zm5.484 13.057a3.2 3.2 0 11-6.4 0 3.2 3.2 0 016.4 0zm-2.4 0a.8.8 0 10-1.601 0 .8.8 0 001.6 0zm13.601 0a3.2 3.2 0 11-6.4 0 3.2 3.2 0 016.4 0zm-2.4 0a.8.8 0 10-1.601 0 .8.8 0 001.6 0z" fill="currentColor"/></svg>