<svg xmlns="http://www.w3.org/2000/svg" width="17" height="16" fill="none"><path fill="#83868B" d="M0 2.065A2.067 2.067 0 012.06 0h12.364a2.059 2.059 0 012.06 2.065v3.247a4.641 4.641 0 00-1.03-.7V2.065a1.033 1.033 0 00-1.03-1.033H2.061a1.03 1.03 0 00-1.03 1.033v8.258a1.033 1.033 0 001.03 1.032h7.478c.078.117.161.23.249.34v.692H2.06A2.059 2.059 0 010 10.323V2.065z"/><path fill="#83868B" d="M17 8.774c0 .985-.392 1.877-1.03 2.53v4.18a.517.517 0 01-.825.413l-1.442-1.084a.514.514 0 00-.618 0l-1.443 1.084a.514.514 0 01-.824-.413v-4.18a3.614 3.614 0 01-.197-4.839 3.607 3.607 0 013.14-1.284 3.602 3.602 0 012.815 1.894c.278.523.424 1.107.424 1.7zm-3.606 3.613a3.572 3.572 0 01-1.546-.348v2.155l1.281-.77a.515.515 0 01.53 0l1.28.77v-2.155c-.482.23-1.01.349-1.545.348zm0-1.032c.683 0 1.338-.272 1.821-.756a2.583 2.583 0 00-1.821-4.405c-.683 0-1.338.271-1.821.755a2.583 2.583 0 001.82 4.406zM3.09 3.613a.517.517 0 01.516-.516h9.273a.515.515 0 010 1.032H3.606a.515.515 0 01-.515-.516zm.516 4.645a.515.515 0 00-.364.881.515.515 0 00.364.151h4.121a.515.515 0 00.365-.88.515.515 0 00-.365-.152h-4.12z"/></svg>