<svg width="13" height="13" fill="none" xmlns="http://www.w3.org/2000/svg"><path d="M6.25 9.625l.625-1.25V5.161A2.497 2.497 0 008.75 2.75c0-1.379-1.121-2.5-2.5-2.5a2.503 2.503 0 00-2.5 2.5c0 1.161.8 2.132 1.875 2.411v3.214l.625 1.25zM5 2.75a1.25 1.25 0 112.5 0 1.25 1.25 0 01-2.5 0z" fill="#4D4D4D"/><path d="M8.917 5.602l-.333 1.205c1.62.447 2.666 1.308 2.666 2.193 0 1.182-2.053 2.5-5 2.5s-5-1.318-5-2.5c0-.885 1.047-1.746 2.667-2.194l-.333-1.205C1.374 6.212 0 7.514 0 9c0 2.102 2.746 3.75 6.25 3.75S12.5 11.102 12.5 9c0-1.486-1.373-2.788-3.583-3.398z" fill="#4D4D4D"/></svg>