<svg width="113" height="48" fill="none" xmlns="http://www.w3.org/2000/svg"><path d="M39.089 21.02v2.59h4.536v1.82h-4.536V29H36.82v-9.8h7.406v1.82h-5.138zm9.632.336c1.167 0 2.063.28 2.688.84.625.55.938 1.386.938 2.506V29h-2.044v-.938c-.41.7-1.176 1.05-2.296 1.05-.579 0-1.083-.098-1.512-.294a2.251 2.251 0 01-.966-.812 2.113 2.113 0 01-.336-1.176c0-.7.261-1.25.784-1.652.532-.401 1.349-.602 2.45-.602h1.736c0-.476-.145-.84-.434-1.092-.29-.261-.723-.392-1.302-.392a3.74 3.74 0 00-1.19.196c-.383.121-.71.29-.98.504l-.784-1.526c.41-.29.9-.513 1.47-.672a6.692 6.692 0 011.778-.238zm-.168 6.286c.373 0 .705-.084.994-.252a1.45 1.45 0 00.616-.77v-.77h-1.498c-.896 0-1.344.294-1.344.882 0 .28.107.504.322.672.224.159.527.238.91.238zm9.773 1.47c-.803 0-1.526-.163-2.17-.49a3.833 3.833 0 01-1.498-1.386c-.355-.588-.532-1.255-.532-2.002 0-.747.177-1.414.532-2.002a3.733 3.733 0 011.498-1.372c.644-.336 1.367-.504 2.17-.504.793 0 1.484.168 2.072.504a2.905 2.905 0 011.302 1.414l-1.694.91c-.392-.69-.957-1.036-1.694-1.036-.57 0-1.041.187-1.414.56-.374.373-.56.882-.56 1.526s.186 1.153.56 1.526c.373.373.844.56 1.414.56.746 0 1.311-.345 1.694-1.036l1.694.924a2.999 2.999 0 01-1.302 1.4c-.588.336-1.279.504-2.072.504zm12.193-3.85c0 .028-.014.224-.042.588H64.78c.103.467.346.835.728 1.106.383.27.86.406 1.428.406.392 0 .738-.056 1.036-.168a2.6 2.6 0 00.854-.56l1.162 1.26c-.709.812-1.745 1.218-3.108 1.218-.849 0-1.6-.163-2.254-.49a3.69 3.69 0 01-1.512-1.386c-.354-.588-.532-1.255-.532-2.002 0-.737.173-1.4.518-1.988a3.677 3.677 0 011.442-1.386 4.227 4.227 0 012.058-.504c.738 0 1.405.159 2.002.476a3.416 3.416 0 011.4 1.372c.346.588.518 1.274.518 2.058zm-3.906-2.254c-.494 0-.91.14-1.246.42-.336.28-.54.663-.616 1.148h3.71c-.074-.476-.28-.854-.616-1.134-.336-.29-.746-.434-1.232-.434zm10.093-1.652c.7 0 1.334.163 1.903.49a3.39 3.39 0 011.359 1.358c.326.579.49 1.255.49 2.03 0 .775-.164 1.456-.49 2.044a3.517 3.517 0 01-1.359 1.358 3.844 3.844 0 01-1.903.476c-1.037 0-1.825-.327-2.367-.98V29h-2.085V18.612h2.183v3.654c.551-.607 1.307-.91 2.269-.91zm-.379 5.964c.56 0 1.018-.187 1.373-.56.364-.383.546-.891.546-1.526s-.182-1.139-.546-1.512c-.355-.383-.813-.574-1.373-.574s-1.022.191-1.385.574c-.355.373-.532.877-.532 1.512s.177 1.143.532 1.526c.364.373.826.56 1.386.56zm9.457 1.792c-.794 0-1.508-.163-2.143-.49a3.756 3.756 0 01-1.47-1.386c-.354-.588-.532-1.255-.532-2.002 0-.747.178-1.414.532-2.002a3.658 3.658 0 011.47-1.372c.635-.336 1.35-.504 2.142-.504.794 0 1.503.168 2.129.504a3.658 3.658 0 011.47 1.372c.354.588.531 1.255.531 2.002 0 .747-.177 1.414-.531 2.002a3.756 3.756 0 01-1.47 1.386c-.626.327-1.335.49-2.129.49zm0-1.792c.56 0 1.017-.187 1.371-.56.364-.383.546-.891.546-1.526s-.181-1.139-.545-1.512c-.355-.383-.813-.574-1.373-.574s-1.022.191-1.386.574c-.364.373-.546.877-.546 1.512s.183 1.143.546 1.526c.364.373.826.56 1.386.56zm9.453 1.792c-.793 0-1.507-.163-2.142-.49a3.756 3.756 0 01-1.47-1.386c-.354-.588-.532-1.255-.532-2.002 0-.747.178-1.414.532-2.002a3.658 3.658 0 011.47-1.372c.635-.336 1.349-.504 2.142-.504.794 0 1.503.168 2.128.504a3.658 3.658 0 011.47 1.372c.355.588.532 1.255.532 2.002 0 .747-.177 1.414-.532 2.002a3.756 3.756 0 01-1.47 1.386c-.625.327-1.334.49-2.128.49zm0-1.792c.56 0 1.018-.187 1.372-.56.364-.383.546-.891.546-1.526s-.182-1.139-.546-1.512c-.354-.383-.812-.574-1.372-.574s-1.022.191-1.386.574c-.364.373-.546.877-.546 1.512s.182 1.143.546 1.526c.364.373.826.56 1.386.56zm9.104-1.274l-1.05 1.036V29h-2.184V18.612h2.184v5.88l3.192-3.024h2.604l-3.136 3.192 3.416 4.34h-2.646l-2.38-2.954z" fill="#1877F2"/><path fill-rule="evenodd" clip-rule="evenodd" d="M0 24.067C0 30.033 4.333 34.994 10 36v-8.667H7V24h3v-2.667c0-3 1.933-4.666 4.667-4.666.866 0 1.8.133 2.666.266V20H15.8c-1.467 0-1.8.733-1.8 1.667V24h3.2l-.533 3.333H14V36c5.667-1.006 10-5.966 10-11.933C24 17.43 18.6 12 12 12S0 17.43 0 24.067z" fill="#1877F2"/></svg>