<svg width="24" height="24" xmlns="http://www.w3.org/2000/svg"><path d="M22.083 11.395c-.824-1.736-1.805-3.152-2.942-4.247L17.95 8.34c.972.93 1.82 2.145 2.552 3.66-1.95 4.035-4.718 5.952-8.501 5.952-1.136 0-2.181-.175-3.138-.524L7.57 18.72c1.328.613 2.805.92 4.43.92 4.505 0 7.866-2.346 10.083-7.038a1.414 1.414 0 000-1.207zm-1.49-7.515l-1-1a.188.188 0 00-.265 0l-2.563 2.56C15.352 4.72 13.763 4.36 12 4.36c-4.505 0-7.866 2.346-10.083 7.038a1.413 1.413 0 000 1.207c.886 1.866 1.952 3.36 3.2 4.486l-2.48 2.48a.188.188 0 000 .265l1 1a.187.187 0 00.265 0l16.69-16.69a.19.19 0 00.042-.205.19.19 0 00-.041-.06zM3.499 12C5.451 7.962 8.22 6.045 12 6.045c1.28 0 2.441.22 3.496.665l-1.649 1.65a4.125 4.125 0 00-5.58 5.581L6.31 15.896c-1.082-.956-2.015-2.25-2.812-3.897zm5.782 0a2.628 2.628 0 013.427-2.501L9.406 12.8a2.626 2.626 0 01-.125-.802z" fill="currentColor"/><path d="M11.906 14.625c-.08 0-.16-.004-.24-.011l-1.238 1.238a4.127 4.127 0 005.33-5.33l-1.238 1.237a2.613 2.613 0 01-.188 1.245 2.625 2.625 0 01-2.426 1.62z" fill="currentColor"/></svg>