<svg width="24" height="24" xmlns="http://www.w3.org/2000/svg"><path d="M20.947 8.305a6.526 6.526 0 00-.42-2.216 4.609 4.609 0 00-2.632-2.633 6.605 6.605 0 00-2.186-.42c-.962-.043-1.267-.055-3.71-.055-2.441 0-2.754 0-3.71.055a6.606 6.606 0 00-2.184.42 4.607 4.607 0 00-2.633 2.633 6.554 6.554 0 00-.419 2.185c-.043.963-.056 1.268-.056 3.71s0 2.754.056 3.71c.015.748.156 1.486.419 2.187a4.61 4.61 0 002.634 2.632 6.586 6.586 0 002.185.45c.963.043 1.268.056 3.71.056s2.755 0 3.71-.056a6.592 6.592 0 002.186-.419 4.617 4.617 0 002.633-2.633c.263-.7.404-1.438.419-2.187.043-.962.056-1.267.056-3.71-.002-2.442-.002-2.752-.058-3.709zm-8.953 8.297a4.622 4.622 0 01-4.623-4.623 4.622 4.622 0 114.623 4.623zM16.8 8.263a1.077 1.077 0 110-2.156 1.078 1.078 0 010 2.156z" fill="currentColor"/><path d="M11.994 14.982a3.003 3.003 0 100-6.006 3.003 3.003 0 000 6.006z" fill="currentColor"/></svg>