<svg width="24" height="16" xmlns="http://www.w3.org/2000/svg"><path d="M15.114 13.103A7.99 7.99 0 0011.677.474 8.006 8.006 0 001.86 4.312 7.988 7.988 0 00.961 8c0 1.867.659 3.673 1.86 5.103l-.012.01c.04.048.086.089.127.136.051.059.107.114.16.171.16.174.325.341.498.498.052.048.107.092.16.138.183.158.37.307.566.447.025.017.048.039.073.057v-.007a7.954 7.954 0 009.15 0v.007c.025-.018.047-.04.073-.057.194-.14.383-.29.566-.447l.16-.138c.172-.158.337-.324.497-.498.053-.057.108-.112.16-.171.041-.047.087-.088.127-.137l-.012-.01zM8.967 3.429a2.575 2.575 0 012.524 3.073 2.57 2.57 0 01-2.022 2.02 2.575 2.575 0 01-3.075-2.521 2.57 2.57 0 012.573-2.572zm-4.57 9.674a2.854 2.854 0 012.855-2.817h3.43a2.859 2.859 0 012.856 2.817 6.83 6.83 0 01-9.142 0z" fill="currentColor"/><path d="M12.788 7.95h0c0-.711.576-1.288 1.287-1.288h2.549V4.114a1.287 1.287 0 112.575 0v2.548h2.548c.711 0 1.288.577 1.288 1.288h0a1.285 1.285 0 01-1.288 1.287s0 0 0 0H19.2v2.549a1.285 1.285 0 01-1.288 1.287 1.287 1.287 0 01-1.287-1.287V9.237h-2.549a1.287 1.287 0 01-1.287-1.287z" fill="currentColor" stroke="currentColor"/></svg>