<svg width="61" height="19" fill="none" xmlns="http://www.w3.org/2000/svg"><path d="M43.773.848a12.38 12.38 0 00-4.312-.743c-4.755 0-8.112 2.388-8.136 5.816-.03 2.518 2.386 3.938 4.213 4.78 1.876.864 2.503 1.41 2.497 2.183-.012 1.176-1.498 1.71-2.88 1.71-1.899 0-2.936-.264-4.532-.925l-.59-.276-.675 3.947c1.155.48 3.239.892 5.39.927 5.055 0 8.36-2.373 8.398-6.02.042-2.012-1.266-3.532-4.018-4.788-1.673-.815-2.71-1.36-2.71-2.187 0-.732.889-1.514 2.746-1.514a8.79 8.79 0 013.605.679l.445.198.675-3.813-.116.026zM56.111.425h-3.714c-1.156 0-2.027.317-2.532 1.46L42.72 18.021h5.055l1.01-2.646 6.17.006c.145.62.59 2.64.59 2.64h4.458L56.111.425zM24.487.277h4.817l-3.013 17.605H21.48L24.487.271v.006zM12.259 9.98l.499 2.444 4.707-12h5.102l-7.58 17.574h-5.09L5.735 3.118a1.005 1.005 0 00-.443-.59A20.686 20.686 0 00.563.783l.065-.37H8.38c1.052.041 1.899.37 2.18 1.49l1.695 8.086V9.98h.003zm37.909 1.796l1.92-4.925c-.024.054.395-1.016.639-1.677l.33 1.52 1.114 5.079h-4.006v.003h.003z" fill="#83868B"/></svg>