<svg width="22" height="22" fill="none" xmlns="http://www.w3.org/2000/svg"><path d="M3 5h16l-1.58 14.22A2 2 0 0115.432 21H6.568a2 2 0 01-1.988-1.78L3 5z" fill="#F8F9FA" stroke="#83868B" stroke-width="2" stroke-linecap="round" stroke-linejoin="round"/><path d="M6.345 2.147A2 2 0 018.154 1h5.692a2 2 0 011.81 1.147L17 5H5l1.345-2.853z" fill="#F8F9FA"/><path fill-rule="evenodd" clip-rule="evenodd" d="M14.382 2.155A1 1 0 0013.847 2H8.154a1 1 0 00-.904.573L6.577 4h8.847l-.672-1.426a1 1 0 00-.37-.419zM13.846 0a3 3 0 012.715 1.72l1.344 2.854A1 1 0 0117 6H5a1 1 0 01-.905-1.426L5.44 1.72A3 3 0 018.154 0m5.692 0zM8.154 0h5.692z" fill="#83868B"/><path fill-rule="evenodd" clip-rule="evenodd" d="M0 5a1 1 0 011-1h20a1 1 0 110 2H1a1 1 0 01-1-1zm9 4a1 1 0 011 1v5a1 1 0 11-2 0v-5a1 1 0 011-1zm4 0a1 1 0 011 1v5a1 1 0 11-2 0v-5a1 1 0 011-1z" fill="#83868B"/></svg>