<svg width="24" height="25" xmlns="http://www.w3.org/2000/svg"><path d="M23.606 22.413l-4.532-4.664a11.124 11.124 0 002.252-6.742c0-2.177-.625-4.305-1.797-6.115A10.744 10.744 0 0014.744.838 10.354 10.354 0 008.583.212a10.564 10.564 0 00-5.46 3.012A11.121 11.121 0 00.205 8.86c-.412 2.135-.2 4.348.607 6.36a10.94 10.94 0 003.927 4.94 10.428 10.428 0 005.924 1.854 10.348 10.348 0 006.532-2.325l4.518 4.678c.124.13.271.232.434.301a1.298 1.298 0 001.459-.3 1.414 1.414 0 000-1.954zM2.666 11.007a8.44 8.44 0 011.348-4.586 8.058 8.058 0 013.589-3.04 7.766 7.766 0 014.62-.47 7.924 7.924 0 014.095 2.259 8.342 8.342 0 012.189 4.227 8.503 8.503 0 01-.455 4.77 8.205 8.205 0 01-2.946 3.704 7.821 7.821 0 01-4.443 1.392 7.873 7.873 0 01-5.655-2.418 8.393 8.393 0 01-2.342-5.838z" fill="currentColor"/></svg>