<svg width="119" height="48" fill="none" xmlns="http://www.w3.org/2000/svg"><path d="M42.282 23.89c.597.177 1.054.467 1.372.868.317.401.476.896.476 1.484 0 .868-.332 1.545-.994 2.03-.654.485-1.592.728-2.814.728h-4.83v-9.8h4.564c1.138 0 2.025.22 2.66.658.634.439.952 1.064.952 1.876 0 .485-.122.915-.364 1.288a2.534 2.534 0 01-1.022.868zm-4.536-.63h2.114c.494 0 .868-.098 1.12-.294.252-.205.378-.504.378-.896 0-.383-.131-.677-.392-.882-.252-.205-.621-.308-1.106-.308h-2.114v2.38zm2.492 4.06c1.064 0 1.596-.42 1.596-1.26 0-.812-.532-1.218-1.596-1.218h-2.492v2.478h2.492zm9.76-2.268h-1.569V29h-2.254v-9.8h2.254v3.962h1.624L52.63 19.2h2.394l-3.206 4.732L55.121 29h-2.576l-2.548-3.948zm9.716 4.06c-.793 0-1.507-.163-2.142-.49a3.756 3.756 0 01-1.47-1.386c-.354-.588-.532-1.255-.532-2.002 0-.747.178-1.414.532-2.002a3.658 3.658 0 011.47-1.372c.635-.336 1.349-.504 2.142-.504.794 0 1.503.168 2.128.504a3.658 3.658 0 011.47 1.372c.355.588.532 1.255.532 2.002 0 .747-.177 1.414-.532 2.002a3.756 3.756 0 01-1.47 1.386c-.625.327-1.334.49-2.128.49zm0-1.792c.56 0 1.018-.187 1.372-.56.364-.383.546-.891.546-1.526s-.182-1.139-.546-1.512c-.354-.383-.812-.574-1.372-.574s-1.022.191-1.386.574c-.364.373-.546.877-.546 1.512s.182 1.143.546 1.526c.364.373.826.56 1.386.56zm5.912-5.852h2.17v2.94h3.276v-2.94h2.184V29h-2.184v-2.814h-3.276V29h-2.17v-7.532zm16.33 1.792h-2.549V29h-2.17v-5.74H74.69v-1.792h7.266v1.792zm4.37-1.904c1.166 0 2.062.28 2.687.84.626.55.938 1.386.938 2.506V29h-2.044v-.938c-.41.7-1.176 1.05-2.296 1.05-.578 0-1.082-.098-1.512-.294a2.251 2.251 0 01-.966-.812 2.113 2.113 0 01-.336-1.176c0-.7.262-1.25.784-1.652.532-.401 1.349-.602 2.45-.602h1.736c0-.476-.144-.84-.434-1.092-.289-.261-.723-.392-1.302-.392a3.74 3.74 0 00-1.19.196c-.382.121-.709.29-.98.504l-.784-1.526c.411-.29.901-.513 1.47-.672a6.693 6.693 0 011.778-.238zm-.169 6.286c.374 0 .705-.084.994-.252a1.45 1.45 0 00.616-.77v-.77H86.27c-.896 0-1.344.294-1.344.882 0 .28.108.504.322.672.224.159.528.238.91.238zm9.29-1.498h-1.134V29h-2.184v-7.532h2.184v2.926h1.176l2.044-2.926h2.324l-2.632 3.612 2.814 3.92h-2.576l-2.016-2.856zm12.204-2.884h-2.548V29h-2.17v-5.74h-2.548v-1.792h7.266v1.792zm8.451 2.002c0 .028-.014.224-.042.588h-5.698c.103.467.346.835.728 1.106.383.27.859.406 1.428.406.392 0 .738-.056 1.036-.168.308-.121.593-.308.854-.56l1.162 1.26c-.709.812-1.745 1.218-3.108 1.218-.849 0-1.6-.163-2.254-.49a3.694 3.694 0 01-1.512-1.386c-.354-.588-.532-1.255-.532-2.002 0-.737.173-1.4.518-1.988a3.683 3.683 0 011.442-1.386 4.227 4.227 0 012.058-.504c.738 0 1.405.159 2.002.476a3.413 3.413 0 011.4 1.372c.346.588.518 1.274.518 2.058zm-3.906-2.254c-.494 0-.91.14-1.246.42-.336.28-.541.663-.616 1.148h3.71c-.074-.476-.28-.854-.616-1.134-.336-.29-.746-.434-1.232-.434zM15.684 12H8.316C1.594 12 0 13.594 0 20.317v7.366C0 34.407 1.594 36 8.316 36h7.367C22.407 36 24 34.406 24 27.683v-7.366C24 13.594 22.39 12 15.684 12zm3.69 17.12h-1.741c-.66 0-.863-.523-2.05-1.726-1.032-1-1.489-1.132-1.743-1.132-.36 0-.461.1-.461.593v1.575c0 .422-.133.675-1.25.675-1.848 0-3.899-1.117-5.336-3.199-2.169-3.05-2.762-5.336-2.762-5.808 0-.255.101-.492.59-.492h1.746c.441 0 .61.203.781.675.863 2.492 2.301 4.676 2.894 4.676.22 0 .32-.102.32-.66v-2.574c-.066-1.188-.691-1.29-.691-1.711 0-.203.168-.407.437-.407h2.746c.371 0 .508.204.508.641v3.472c0 .375.168.508.269.508.219 0 .406-.133.812-.54 1.254-1.405 2.153-3.573 2.153-3.573.116-.255.32-.492.762-.492h1.745c.524 0 .64.269.524.644-.22 1.015-2.356 4.03-2.356 4.03-.184.305-.254.438 0 .778.188.254.797.781 1.203 1.254.746.847 1.32 1.558 1.473 2.05.172.489-.082.743-.574.743h.002z" fill="#5181B8"/></svg>