<svg width="16" height="16" xmlns="http://www.w3.org/2000/svg"><path d="M16 7.74v-.023c-.2-2.625-1.138-4.593-2.767-5.838C11.626.612 9.886 0 7.989 0 6.003-.022 4.15.657 2.499 2.015.826 3.35 0 5.34 0 7.92v.158c0 2.603.826 4.55 2.5 5.884C4.172 15.321 6.024 16 8.01 16h.09c1.94-.023 3.726-.701 5.377-2.06 1.652-1.335 2.5-3.394 2.522-6.2zM8.48 4.187V.612h.535c.112.135.201.294.29.43.09.135.179.271.268.43.09.135.201.316.268.452.09.136.156.272.223.43.134.226.246.453.335.656.112.204.2.408.268.589-.134.09-.29.203-.469.271-.2.068-.402.136-.602.181-.224.046-.424.068-.603.09-.2.023-.38.046-.513.046zM7.543.612v3.552c-.112 0-.246.023-.38 0-.134 0-.29-.022-.424-.045a7.462 7.462 0 01-.759-.18 2.054 2.054 0 01-.624-.34c.267-.657.558-1.177.848-1.675.29-.498.624-.928.982-1.29V.612h.357zm2.41.203V.793c.156.067.312.18.49.249.157.067.358.158.514.248.312.159.625.34.937.544.29.203.58.43.826.656-.09.09-.201.18-.29.249-.09.068-.201.158-.313.249-.09.045-.2.113-.312.203-.112.068-.246.159-.38.25-.178-.408-.357-.838-.58-1.223a10.835 10.835 0 00-.714-1.131.472.472 0 00-.09-.136c-.021-.023-.044-.09-.088-.136zM3.124 2.49v-.023c.558-.43 1.049-.792 1.54-1.018.49-.226.982-.453 1.428-.634-.357.362-.67.815-.87 1.245a18.83 18.83 0 00-.625 1.38c-.09-.045-.2-.09-.335-.18-.111-.069-.268-.136-.401-.204-.134-.09-.246-.181-.38-.272-.134-.113-.268-.204-.357-.294zm.38 5.046H.936c0-.837.179-1.629.513-2.444a5.92 5.92 0 011.317-2.014v-.022c.112.18.268.34.424.452.179.113.335.204.513.294.112.068.223.159.335.204.112.068.268.113.38.181-.09.181-.18.385-.268.566-.067.204-.179.43-.224.633a9.372 9.372 0 00-.312 1.132 5.47 5.47 0 00-.112 1.018zm8.078-3.349v-.023c.178-.09.379-.158.535-.248.156-.114.313-.227.446-.317.134-.068.268-.159.38-.25.111-.09.2-.18.29-.27a5.066 5.066 0 011.272 1.945c.29.747.49 1.585.58 2.49H12.34a7.43 7.43 0 00-.245-1.856 6.091 6.091 0 00-.513-1.47zM8.48 7.514V4.91a2.633 2.633 0 001.249-.158c.179-.045.402-.09.58-.159.202-.045.402-.135.559-.226.133.226.245.498.334.792.112.272.179.566.246.838.044.271.067.565.089.814.022.25.045.498.045.702H8.48zm-.937-2.557v2.557H4.24c0-.136 0-.294.022-.476.045-.158.067-.362.09-.543.066-.271.133-.565.223-.837.089-.249.178-.498.29-.701.044-.114.089-.25.134-.34.067-.113.134-.181.178-.249.246.181.58.294.982.385.38.09.826.18 1.227.204h.157zM12.34 8.26h2.745c0 .384-.067.814-.178 1.335-.112.543-.335 1.04-.58 1.584-.112.271-.246.543-.38.815-.156.248-.335.52-.513.769-.134-.09-.268-.159-.38-.226-.133-.068-.29-.159-.424-.227-.156-.068-.312-.136-.49-.226a50.22 50.22 0 01-.558-.249c.178-.566.379-1.109.513-1.72a6.988 6.988 0 00.245-1.833V8.26zm-3.86 2.647V8.261h3.102c0 .18-.023.452-.067.724-.023.271-.09.565-.134.86-.09.316-.156.633-.246.905a7.42 7.42 0 01-.268.701 9.076 9.076 0 00-1.07-.34 3.877 3.877 0 00-.826-.18h-.246c-.089-.023-.178-.023-.245-.023zM7.543 8.26v2.625c-.157.022-.335.045-.514.068a6.13 6.13 0 00-.647.113l-.335.067c-.111.046-.245.068-.357.091-.134.045-.267.068-.401.113-.112.046-.223.068-.313.113a12.3 12.3 0 01-.58-1.878 5.933 5.933 0 01-.156-1.29V8.26h3.303zm-6.606.022V8.26h2.566v.135c.023.43.09.928.179 1.449.09.497.29 1.086.558 1.81a9.218 9.218 0 00-.96.543 4.713 4.713 0 00-.691.566c-.38-.385-.715-.905-1.005-1.584a8.095 8.095 0 01-.602-2.06C.96 8.985.96 8.85.937 8.713v-.43zm7.543 6.88v-3.53a15.8 15.8 0 011.383.294c.357.09.625.18.804.271-.134.34-.268.634-.402.905-.134.25-.29.52-.424.747-.045.09-.134.181-.2.294-.068.09-.112.204-.18.294-.066.114-.133.25-.2.385-.09.113-.156.25-.246.34H8.48zm-.937 0h-.514a2.56 2.56 0 01-.558-.634 7.931 7.931 0 01-.513-.792c-.156-.294-.312-.566-.446-.837-.134-.272-.246-.52-.335-.702.246-.09.58-.18.915-.271.335-.09.803-.181 1.45-.272v3.508zm-4.419-1.856v-.023c.045-.068.134-.158.201-.226a1.64 1.64 0 01.29-.226c.09-.068.2-.136.335-.204.134-.068.312-.158.468-.249.09.181.246.498.469.928.2.43.558.95 1.004 1.516a4.118 4.118 0 01-1.495-.566 4.95 4.95 0 01-1.272-.95zm8.301-.724v-.023a9.5 9.5 0 00.647.317 4.8 4.8 0 01.826.43 5.196 5.196 0 01-.446.362c-.134.113-.29.204-.424.294a7.168 7.168 0 01-.826.453c-.29.136-.647.271-1.093.407.156-.18.268-.407.38-.588.11-.181.245-.362.356-.543.112-.181.201-.385.29-.566.112-.181.201-.362.29-.543z" fill="currentColor"/></svg>