<svg width="73" height="40" fill="none" xmlns="http://www.w3.org/2000/svg"><path d="M9.927 22.534v9.128h2.59V7.834H8.654c-3.812 0-7.007 2.503-7.007 7.497 0 3.565 1.412 5.5 3.535 6.572L.67 31.662h3.005l4.098-9.128h2.155zm0-2.134h-1.38c-2.251 0-4.109-1.23-4.109-5.069 0-3.964 2.028-5.33 4.109-5.33h1.38V20.4z" fill="red"/><path d="M38.498 29.537H37.16V14.868h-7.878v1.43c0 4.47-.17 9.664-1.72 13.239h-1.04v5.426h2.357V31.66h7.272v3.302h2.347v-5.426zm11.413.999l-.605-1.998c-.669.462-1.847 1.125-3.334 1.125-2.08 0-3.164-1.998-3.164-5.794h7.071v-1.44c0-5.7-1.847-7.792-4.682-7.792-3.6 0-5.117 3.932-5.117 9.327 0 5.173 2.155 7.939 5.659 7.939 1.688 0 3.1-.537 4.172-1.367zM22.413 14.868v7.13h-3.907v-7.13h-2.623v16.793h2.623v-7.529h3.907v7.529h2.59V14.868h-2.59zm37.255 16.793h2.867l-4.81-8.896 4.205-7.897h-2.665l-4.067 7.76v-7.76h-2.622v16.793h2.622V23.3l4.47 8.36zm9.025.242c1.55 0 2.622-.505 3.535-1.273l-.605-1.934c-.605.536-1.582 1.04-2.867 1.04-2.112 0-3.132-2.407-3.132-6.603 0-4.238 1.349-6.33 3.239-6.33 1.072 0 2.08.568 2.792 1.167l.371-2.471c-.743-.463-1.613-.862-3.132-.862-3.97 0-6.02 3.365-6.02 8.633 0 5.73 2.188 8.633 5.819 8.633zm-34.124-2.366h-4.512c1.412-3.575 1.582-8.738 1.582-12.271v-.295h2.93v12.566zM45.197 16.77c1.518 0 1.985 2.093 1.985 4.963H42.84c.17-2.996.743-4.963 2.357-4.963z" fill="#000"/></svg>