<svg xmlns="http://www.w3.org/2000/svg" width="193" height="60" fill="none"><path fill="url(#paint0_linear)" d="M1.536 38V20.24h3.552v7.344H7.44l3.648-7.344h3.792l-4.608 8.928L15.024 38h-3.792L7.44 30.8H5.088V38H1.536zm18.597.144c-1.168 0-2.08-.336-2.736-1.008-.64-.688-.96-1.656-.96-2.904v-9.12h3.552v8.064c0 .72.168 1.208.504 1.464.336.24.792.36 1.368.36.448 0 .904-.08 1.368-.24.48-.176.904-.408 1.272-.696v-8.952h3.576V38h-2.952l-.624-1.32c-.592.384-1.264.728-2.016 1.032a6.396 6.396 0 01-2.352.432zm10.626 5.544V25.112h2.976l.576 1.224a8.618 8.618 0 011.56-.96 4.444 4.444 0 012.016-.456c1.6 0 2.76.592 3.48 1.776.72 1.184 1.08 2.808 1.08 4.872 0 1.376-.136 2.56-.408 3.552-.272.992-.744 1.752-1.416 2.28-.656.512-1.568.768-2.736.768a8.515 8.515 0 01-1.872-.216 6.942 6.942 0 01-1.704-.624v6.36h-3.552zm5.976-8.448c.368 0 .712-.096 1.032-.288.336-.208.608-.576.816-1.104.208-.528.312-1.288.312-2.28 0-1.44-.208-2.432-.624-2.976-.4-.544-.912-.816-1.536-.816-.496 0-.952.08-1.368.24a8.43 8.43 0 00-1.056.48v6.12c.32.192.696.344 1.128.456.432.112.864.168 1.296.168zm8.495-12.024c-.336 0-.504-.16-.504-.48v-2.352c0-.336.168-.504.504-.504h2.736c.304 0 .456.168.456.504v2.352c0 .32-.152.48-.456.48H45.23zM44.798 38V25.112h3.552V38h-3.552zm9.52 0l-4.32-12.888h3.673l2.784 9.6 2.856-9.6h3.624L58.423 38h-4.104z"/><path fill="url(#paint1_linear)" d="M69.304 45V18.36h11.232c.864 0 1.74.108 2.628.324.912.192 1.74.6 2.484 1.224.768.6 1.38 1.512 1.836 2.736.48 1.224.72 2.844.72 4.86 0 2.04-.24 3.684-.72 4.932-.456 1.224-1.056 2.16-1.8 2.808-.744.648-1.548 1.08-2.412 1.296-.864.216-1.704.324-2.52.324-.576 0-1.272-.036-2.088-.108a61.576 61.576 0 01-2.304-.252c-.744-.096-1.32-.168-1.728-.216V45h-5.328zm5.328-12.924h5.292c.936 0 1.656-.348 2.16-1.044.504-.696.756-1.86.756-3.492 0-1.608-.264-2.736-.792-3.384-.504-.672-1.176-1.008-2.016-1.008h-5.4v8.928zm22.827 12.996c-2.04 0-3.564-.504-4.572-1.512-.984-1.008-1.476-2.604-1.476-4.788v-21.24h5.328V37.98c0 1.08.168 1.836.504 2.268.336.408.84.66 1.512.756l1.476.216v3.852h-2.772zm10.71.144c-1.752 0-3.12-.504-4.104-1.512-.96-1.032-1.44-2.484-1.44-4.356v-13.68h5.328v12.096c0 1.08.252 1.812.756 2.196.504.36 1.188.54 2.052.54a6.27 6.27 0 002.052-.36 6.954 6.954 0 001.908-1.044V25.668h5.364V45h-4.428l-.936-1.98a17.814 17.814 0 01-3.024 1.548 9.595 9.595 0 01-3.528.648zm22.958 0c-.816 0-1.704-.036-2.664-.108a31.278 31.278 0 01-2.7-.252c-.864-.144-1.572-.312-2.124-.504V41.22h8.568c.744 0 1.296-.096 1.656-.288.36-.216.54-.648.54-1.296v-.612c0-.48-.156-.852-.468-1.116-.312-.264-.888-.396-1.728-.396h-3.024c-1.104 0-2.1-.156-2.988-.468a4.407 4.407 0 01-2.124-1.656c-.504-.768-.756-1.812-.756-3.132V31.14c0-1.224.24-2.256.72-3.096.48-.84 1.284-1.476 2.412-1.908 1.128-.432 2.676-.648 4.644-.648.792 0 1.632.048 2.52.144.912.072 1.764.18 2.556.324.816.144 1.464.288 1.944.432v3.132h-8.1c-.696 0-1.224.12-1.584.36-.36.216-.54.636-.54 1.26v.576c0 .624.192 1.032.576 1.224.384.192.972.288 1.764.288h3.096c1.968 0 3.396.456 4.284 1.368.912.888 1.368 2.124 1.368 3.708v1.728c0 1.968-.684 3.324-2.052 4.068-1.344.744-3.276 1.116-5.796 1.116z"/><defs><linearGradient id="paint0_linear" x1="63" x2="63" y1="0" y2="60" gradientUnits="userSpaceOnUse"><stop stop-color="#FDB89A"/><stop offset="1" stop-color="#EA7894"/></linearGradient><linearGradient id="paint1_linear" x1="130" x2="130" y1="18" y2="48" gradientUnits="userSpaceOnUse"><stop stop-color="#FDB89A"/><stop offset="1" stop-color="#EA7894"/></linearGradient></defs></svg>